0
SECTION
2
HEADER
9
$INSUNITS
70
4
9
$ACADVER
1
AC1014
9
$HANDSEED
5
FFFF
0
ENDSEC
0
SECTION
2
TABLES
0
TABLE
2
VPORT
5
8
100
AcDbSymbolTable
0
ENDTAB
0
TABLE
2
LTYPE
5
5
100
AcDbSymbolTable
0
LTYPE
5
14
100
AcDbSymbolTableRecord
100
AcDbLinetypeTableRecord
2
BYBLOCK
70
0
0
LTYPE
5
15
100
AcDbSymbolTableRecord
100
AcDbLinetypeTableRecord
2
BYLAYER
70
0
0
ENDTAB
0
TABLE
2
LAYER
5
2
100
AcDbSymbolTable
70
2
0
LAYER
5
50
100
AcDbSymbolTableRecord
100
AcDbLayerTableRecord
2
0
70
0
6
CONTINUOUS
0
ENDTAB
0
TABLE
2
STYLE
5
3
100
AcDbSymbolTable
70
1
0
STYLE
5
11
100
AcDbSymbolTableRecord
100
AcDbTextStyleTableRecord
2
STANDARD
70
0
0
ENDTAB
0
TABLE
2
VIEW
5
6
100
AcDbSymbolTable
70
0
0
ENDTAB
0
TABLE
2
UCS
5
7
100
AcDbSymbolTable
70
0
0
ENDTAB
0
TABLE
2
APPID
5
9
100
AcDbSymbolTable
70
2
0
APPID
5
12
100
AcDbSymbolTableRecord
100
AcDbRegAppTableRecord
2
ACAD
70
0
0
ENDTAB
0
TABLE
2
DIMSTYLE
5
A
100
AcDbSymbolTable
70
1
0
ENDTAB
0
TABLE
2
BLOCK_RECORD
5
1
100
AcDbSymbolTable
70
1
0
BLOCK_RECORD
5
1F
100
AcDbSymbolTableRecord
100
AcDbBlockTableRecord
2
*MODEL_SPACE
0
BLOCK_RECORD
5
1B
100
AcDbSymbolTableRecord
100
AcDbBlockTableRecord
2
*PAPER_SPACE
0
ENDTAB
0
ENDSEC
0
SECTION
2
BLOCKS
0
BLOCK
5
20
100
AcDbEntity
100
AcDbBlockBegin
2
*MODEL_SPACE
0
ENDBLK
5
21
100
AcDbEntity
100
AcDbBlockEnd
0
BLOCK
5
1C
100
AcDbEntity
100
AcDbBlockBegin
2
*PAPER_SPACE
0
ENDBLK
5
1D
100
AcDbEntity
100
AcDbBlockEnd
0
ENDSEC
0
SECTION
2
ENTITIES
0
CIRCLE
5
100
100
AcDbEntity
8
0
100
AcDbCircle
10
-54.251136317079101
20
200.49728850586939
30
0
40
2.0000000000000018
210
0
220
0
230
1
0
CIRCLE
5
101
100
AcDbEntity
8
0
100
AcDbCircle
10
56.764628329208961
20
200.49728850586939
30
0
40
2.0000000000000018
210
0
220
0
230
1
0
CIRCLE
5
102
100
AcDbEntity
8
0
100
AcDbCircle
10
-54.251136317079101
20
89.481523859581472
30
0
40
2.0000000000000018
210
0
220
0
230
1
0
CIRCLE
5
103
100
AcDbEntity
8
0
100
AcDbCircle
10
1.2567460060649271
20
144.98940618272545
30
0
40
70.000000000000028
210
0
220
0
230
1
0
CIRCLE
5
104
100
AcDbEntity
8
0
100
AcDbCircle
10
56.764628329208961
20
89.481523859581472
30
0
40
2.0000000000000018
210
0
220
0
230
1
0
CIRCLE
5
105
100
AcDbEntity
8
0
100
AcDbCircle
10
75.500778717529812
20
256.8503923715362
30
0
40
2.9999999999999982
210
0
220
0
230
1
0
CIRCLE
5
106
100
AcDbEntity
8
0
100
AcDbCircle
10
-57.692962671664191
20
266.58192708574398
30
0
40
2.9999999999999982
210
0
220
0
230
1
0
CIRCLE
5
107
100
AcDbEntity
8
0
100
AcDbCircle
10
60.358215126568581
20
266.58192708573705
30
0
40
2.9999999999999982
210
0
220
0
230
1
0
CIRCLE
5
108
100
AcDbEntity
8
0
100
AcDbCircle
10
-72.835526262625422
20
256.85039237153632
30
0
40
2.9999999999999982
210
0
220
0
230
1
0
CIRCLE
5
109
100
AcDbEntity
8
0
100
AcDbCircle
10
76.432626227452246
20
220.28940618272603
30
0
40
4.0000000000000036
210
0
220
0
230
1
0
CIRCLE
5
110
100
AcDbEntity
8
0
100
AcDbCircle
10
-73.767373772547785
20
220.28940618272603
30
0
40
4.0000000000000036
210
0
220
0
230
1
0
CIRCLE
5
111
100
AcDbEntity
8
0
100
AcDbCircle
10
1.3326262274522203
20
-128.91059556070996
30
0
40
4
210
0
220
0
230
1
0
CIRCLE
5
112
100
AcDbEntity
8
0
100
AcDbCircle
10
145.63174600606538
20
-288.61059381727398
30
0
40
2.9999999999999893
210
0
220
0
230
1
0
CIRCLE
5
113
100
AcDbEntity
8
0
100
AcDbCircle
10
-133.51825399393459
20
-198.76311286161018
30
0
40
3.0000000000000071
210
0
220
0
230
1
0
LWPOLYLINE
5
114
100
AcDbEntity
8
0
100
AcDbPolyline
90
47
70
1
43
0.0
10
18.862626227452218
20
-339.02059381727406
10
-79.767373772547771
20
-339.02059381727406
10
-79.767373772547757
20
-335.81059381727408
10
-122.54325399393458
20
-335.81059381727391
42
-0.41421356237309515
10
-160.64325399393456
20
-297.71059381727406
10
-160.64325399393468
20
-295.92187406928656
42
-0.0085447300546743054
10
-160.66737377254776
20
-294.51059381727401
10
-160.66737377254771
20
-244.51059381727407
10
-163.76737377254773
20
-244.51059381727407
10
-163.76737377254773
20
-163.51059381727407
10
-145.16365623354758
20
116.48227315621523
10
-151.0673737725478
20
158.48940618272593
10
-144.89410295139723
20
201.42544784535986
10
-126.87441217601985
20
240.88306676295906
10
-98.468149625809332
20
273.66564131431494
10
-61.976621754035236
20
297.11732227475466
10
-20.35615512539642
20
309.33819392538021
10
-20.35615512539642
20
320.28940618272594
10
23.021407580300817
20
320.28940618272594
10
23.021407580300817
20
309.33819392538015
10
64.641874208939655
20
297.1173222747546
10
101.13340208071375
20
273.66564131431494
10
105.12221197446515
20
269.06230930321505
10
115.30263266583354
20
277.88369404764921
10
136.12720400529361
20
253.8508575831838
10
125.94678331392518
20
245.02947283874963
10
129.53966463092419
20
240.88306676295912
10
147.55935540630165
20
201.42544784535988
10
153.73262622745222
20
158.48940618272596
10
147.53262622745217
20
116.56723078478821
10
147.53262622745217
20
6.78940618272593
10
123.63262622745218
20
-34.710593817274031
10
123.63262622745222
20
-76.810593817273997
42
0.41421356237309453
10
142.63262622745225
20
-95.810593817274011
10
186.33262898416703
20
-95.810593817274054
10
186.33262898416703
20
-92.910595009367029
42
-0.41421356237309503
10
187.33262898416706
20
-91.910595009367015
10
196.0326262274522
20
-91.910595009367043
42
-0.41421356237309503
10
197.03262622745217
20
-92.910595009367029
10
197.03262622745225
20
-227.810593817274
10
174.33262622745224
20
-227.810593817274
10
174.33262622745224
20
-329.51059381727407
10
36.256126176658448
20
-329.51059381727407
42
0.26576310485443716
10
30.826061201343499
20
-332.61616204247326
42
-0.26413357978836544
10
25.348784040137197
20
-335.77090629815507
10
18.832626227452238
20
-335.81059381727408
10
18.862626227452239
20
-335.81059381727408
0
CIRCLE
5
115
100
AcDbEntity
8
0
100
AcDbCircle
10
-133.51825399393459
20
-216.76311286161021
30
0
40
3.0000000000000071
210
0
220
-0
230
1
0
CIRCLE
5
116
100
AcDbEntity
8
0
100
AcDbCircle
10
145.63174600606538
20
-306.61059381727404
30
0
40
3.0000000000000071
210
0
220
-0
230
1
0
ENDSEC
0
SECTION
2
OBJECTS
0
DICTIONARY
5
C
100
AcDbDictionary
3
ACAD_GROUP
350
D
3
ACAD_MLINESTYLE
350
17
0
DICTIONARY
5
D
100
AcDbDictionary
0
DICTIONARY
5
1A
330
C
100
AcDbDictionary
0
DICTIONARY
5
17
100
AcDbDictionary
0
ENDSEC
0
EOF
