0
SECTION
2
HEADER
9
$INSUNITS
70
4
9
$ACADVER
1
AC1014
9
$HANDSEED
5
FFFF
0
ENDSEC
0
SECTION
2
TABLES
0
TABLE
2
VPORT
5
8
100
AcDbSymbolTable
0
ENDTAB
0
TABLE
2
LTYPE
5
5
100
AcDbSymbolTable
0
LTYPE
5
14
100
AcDbSymbolTableRecord
100
AcDbLinetypeTableRecord
2
BYBLOCK
70
0
0
LTYPE
5
15
100
AcDbSymbolTableRecord
100
AcDbLinetypeTableRecord
2
BYLAYER
70
0
0
ENDTAB
0
TABLE
2
LAYER
5
2
100
AcDbSymbolTable
70
2
0
LAYER
5
50
100
AcDbSymbolTableRecord
100
AcDbLayerTableRecord
2
0
70
0
6
CONTINUOUS
0
ENDTAB
0
TABLE
2
STYLE
5
3
100
AcDbSymbolTable
70
1
0
STYLE
5
11
100
AcDbSymbolTableRecord
100
AcDbTextStyleTableRecord
2
STANDARD
70
0
0
ENDTAB
0
TABLE
2
VIEW
5
6
100
AcDbSymbolTable
70
0
0
ENDTAB
0
TABLE
2
UCS
5
7
100
AcDbSymbolTable
70
0
0
ENDTAB
0
TABLE
2
APPID
5
9
100
AcDbSymbolTable
70
2
0
APPID
5
12
100
AcDbSymbolTableRecord
100
AcDbRegAppTableRecord
2
ACAD
70
0
0
ENDTAB
0
TABLE
2
DIMSTYLE
5
A
100
AcDbSymbolTable
70
1
0
ENDTAB
0
TABLE
2
BLOCK_RECORD
5
1
100
AcDbSymbolTable
70
1
0
BLOCK_RECORD
5
1F
100
AcDbSymbolTableRecord
100
AcDbBlockTableRecord
2
*MODEL_SPACE
0
BLOCK_RECORD
5
1B
100
AcDbSymbolTableRecord
100
AcDbBlockTableRecord
2
*PAPER_SPACE
0
ENDTAB
0
ENDSEC
0
SECTION
2
BLOCKS
0
BLOCK
5
20
100
AcDbEntity
100
AcDbBlockBegin
2
*MODEL_SPACE
0
ENDBLK
5
21
100
AcDbEntity
100
AcDbBlockEnd
0
BLOCK
5
1C
100
AcDbEntity
100
AcDbBlockBegin
2
*PAPER_SPACE
0
ENDBLK
5
1D
100
AcDbEntity
100
AcDbBlockEnd
0
ENDSEC
0
SECTION
2
ENTITIES
0
CIRCLE
5
100
100
AcDbEntity
8
0
100
AcDbCircle
10
124.42588101557428
20
213.85251904433576
30
0
40
2.9999999999999716
210
0
220
0
230
1
0
CIRCLE
5
101
100
AcDbEntity
8
0
100
AcDbCircle
10
124.42588101557428
20
231.85251904433582
30
0
40
2.9999999999999716
210
0
220
0
230
1
0
CIRCLE
5
102
100
AcDbEntity
8
0
100
AcDbCircle
10
0.075880221387031044
20
-156.89999999999984
30
0
40
70.000000000000028
210
0
220
0
230
1
0
CIRCLE
5
103
100
AcDbEntity
8
0
100
AcDbCircle
10
-74.168152490077858
20
-268.76098618881059
30
0
40
2.9999999999999982
210
0
220
0
230
1
0
CIRCLE
5
104
100
AcDbEntity
8
0
100
AcDbCircle
10
59.025588899116137
20
-278.49252090301837
30
0
40
2.9999999999999982
210
0
220
0
230
1
0
CIRCLE
5
105
100
AcDbEntity
8
0
100
AcDbCircle
10
-59.025588899116634
20
-278.49252090301144
30
0
40
2.9999999999999982
210
0
220
0
230
1
0
CIRCLE
5
106
100
AcDbEntity
8
0
100
AcDbCircle
10
74.168152490077375
20
-268.76098618881076
30
0
40
2.9999999999999982
210
0
220
0
230
1
0
CIRCLE
5
107
100
AcDbEntity
8
0
100
AcDbCircle
10
-75.100000000000307
20
-232.20000000000041
30
0
40
4.0000000000000036
210
0
220
0
230
1
0
CIRCLE
5
108
100
AcDbEntity
8
0
100
AcDbCircle
10
75.099999999999739
20
-232.20000000000041
30
0
40
4.0000000000000036
210
0
220
0
230
1
0
CIRCLE
5
109
100
AcDbEntity
8
0
100
AcDbCircle
10
-2.3175905639050143e-13
20
117.00000174343558
30
0
40
4
210
0
220
0
230
1
0
CIRCLE
5
110
100
AcDbEntity
8
0
100
AcDbCircle
10
-144.2991197786134
20
276.69999999999959
30
0
40
2.9999999999999893
210
0
220
0
230
1
0
LWPOLYLINE
5
111
100
AcDbEntity
8
0
100
AcDbPolyline
90
47
70
1
43
0.0
10
-17.530000000000214
20
327.10999999999962
10
81.099999999999781
20
327.10999999999962
10
81.099999999999767
20
323.89999999999964
10
123.87588022138661
20
323.89999999999958
42
-0.41421356237309515
10
161.97588022138657
20
285.79999999999961
10
161.97588022138666
20
284.01128025201217
42
-0.0085447300546743054
10
161.99999999999974
20
282.59999999999962
10
161.99999999999972
20
232.59999999999968
10
165.09999999999974
20
232.59999999999968
10
165.09999999999974
20
151.59999999999968
10
146.49628246099951
20
-128.39286697348962
10
152.39999999999978
20
-170.40000000000035
10
146.22672917884918
20
-213.33604166263424
10
128.20703840347181
20
-252.79366058023345
10
99.800775853261285
20
-285.57623513158933
10
63.309247981487204
20
-309.02791609202905
10
21.688781352848352
20
-321.24878774265454
10
21.688781352848356
20
-332.20000000000033
10
-21.688781352848881
20
-332.20000000000033
10
-21.688781352848885
20
-321.24878774265454
10
-63.309247981487715
20
-309.02791609202899
10
-99.800775853261797
20
-285.57623513158933
10
-103.78958574701318
20
-280.97290312048938
10
-113.9700064383816
20
-289.7942878649236
10
-134.79457777784165
20
-265.76145140045816
10
-124.61415708647323
20
-256.94006665602399
10
-128.20703840347224
20
-252.79366058023351
10
-146.22672917884969
20
-213.33604166263427
10
-152.40000000000026
20
-170.40000000000035
10
-146.20000000000022
20
-128.47782460206261
10
-146.20000000000022
20
-18.700000000000312
10
-122.3000000000002
20
22.799999999999638
10
-122.30000000000024
20
64.899999999999608
42
0.41421356237309415
10
-141.30000000000027
20
83.899999999999636
10
-185.00000275671508
20
83.89999999999965
10
-185.00000275671508
20
81.000001192092626
42
-0.41421356237309503
10
-186.00000275671508
20
80.000001192092611
10
-194.70000000000024
20
80.00000119209264
42
-0.41421356237309503
10
-195.70000000000022
20
81.000001192092626
10
-195.70000000000024
20
215.89999999999961
10
-173.00000000000026
20
215.89999999999961
10
-173.00000000000026
20
317.59999999999968
10
-34.923499949206438
20
317.59999999999968
42
0.2657631048544371
10
-29.493434973891489
20
320.70556822519882
42
-0.26413357978836521
10
-24.016157812685197
20
323.86031248088068
10
-17.500000000000227
20
323.89999999999964
10
-17.530000000000225
20
323.89999999999964
0
CIRCLE
5
112
100
AcDbEntity
8
0
100
AcDbCircle
10
-144.2991197786134
20
294.69999999999965
30
0
40
3.0000000000000071
210
0
220
-0
230
1
0
CIRCLE
5
113
100
AcDbEntity
8
0
100
AcDbCircle
10
33.337500000000006
20
-120.2375
30
0
40
1.5000000000000036
210
0
220
-0
230
1
0
CIRCLE
5
114
100
AcDbEntity
8
0
100
AcDbCircle
10
-33.337500000000006
20
-120.2375
30
0
40
1.5000000000000036
210
0
220
-0
230
1
0
LWPOLYLINE
5
115
100
AcDbEntity
8
0
100
AcDbPolyline
90
4
70
1
43
0.0
10
-46.037499999999973
20
-136.11249999999998
42
-0.18763097567466339
10
46.037499999999994
20
-136.11250000000001
10
46.037500000000009
20
-113.8875
10
-46.037500000000009
20
-113.8875
0
CIRCLE
5
116
100
AcDbEntity
8
0
100
AcDbCircle
10
33.337500000000006
20
-150.23750000000001
30
0
40
1.5000000000000036
210
0
220
-0
230
1
0
CIRCLE
5
117
100
AcDbEntity
8
0
100
AcDbCircle
10
-33.337500000000006
20
-150.23750000000001
30
0
40
1.5000000000000036
210
0
220
-0
230
1
0
LWPOLYLINE
5
118
100
AcDbEntity
8
0
100
AcDbPolyline
90
4
70
1
43
0.0
10
-46.037499999999973
20
-166.11249999999998
42
-0.18763097567466339
10
46.037499999999994
20
-166.11250000000001
10
46.037500000000009
20
-143.88749999999999
10
-46.037500000000009
20
-143.88749999999999
0
ENDSEC
0
SECTION
2
OBJECTS
0
DICTIONARY
5
C
100
AcDbDictionary
3
ACAD_GROUP
350
D
3
ACAD_MLINESTYLE
350
17
0
DICTIONARY
5
D
100
AcDbDictionary
0
DICTIONARY
5
1A
330
C
100
AcDbDictionary
0
DICTIONARY
5
17
100
AcDbDictionary
0
ENDSEC
0
EOF
