0
SECTION
2
HEADER
9
$INSUNITS
70
4
9
$ACADVER
1
AC1014
9
$HANDSEED
5
FFFF
0
ENDSEC
0
SECTION
2
TABLES
0
TABLE
2
VPORT
5
8
100
AcDbSymbolTable
0
ENDTAB
0
TABLE
2
LTYPE
5
5
100
AcDbSymbolTable
0
LTYPE
5
14
100
AcDbSymbolTableRecord
100
AcDbLinetypeTableRecord
2
BYBLOCK
70
0
0
LTYPE
5
15
100
AcDbSymbolTableRecord
100
AcDbLinetypeTableRecord
2
BYLAYER
70
0
0
ENDTAB
0
TABLE
2
LAYER
5
2
100
AcDbSymbolTable
70
2
0
LAYER
5
50
100
AcDbSymbolTableRecord
100
AcDbLayerTableRecord
2
0
70
0
6
CONTINUOUS
0
ENDTAB
0
TABLE
2
STYLE
5
3
100
AcDbSymbolTable
70
1
0
STYLE
5
11
100
AcDbSymbolTableRecord
100
AcDbTextStyleTableRecord
2
STANDARD
70
0
0
ENDTAB
0
TABLE
2
VIEW
5
6
100
AcDbSymbolTable
70
0
0
ENDTAB
0
TABLE
2
UCS
5
7
100
AcDbSymbolTable
70
0
0
ENDTAB
0
TABLE
2
APPID
5
9
100
AcDbSymbolTable
70
2
0
APPID
5
12
100
AcDbSymbolTableRecord
100
AcDbRegAppTableRecord
2
ACAD
70
0
0
ENDTAB
0
TABLE
2
DIMSTYLE
5
A
100
AcDbSymbolTable
70
1
0
ENDTAB
0
TABLE
2
BLOCK_RECORD
5
1
100
AcDbSymbolTable
70
1
0
BLOCK_RECORD
5
1F
100
AcDbSymbolTableRecord
100
AcDbBlockTableRecord
2
*MODEL_SPACE
0
BLOCK_RECORD
5
1B
100
AcDbSymbolTableRecord
100
AcDbBlockTableRecord
2
*PAPER_SPACE
0
ENDTAB
0
ENDSEC
0
SECTION
2
BLOCKS
0
BLOCK
5
20
100
AcDbEntity
100
AcDbBlockBegin
2
*MODEL_SPACE
0
ENDBLK
5
21
100
AcDbEntity
100
AcDbBlockEnd
0
BLOCK
5
1C
100
AcDbEntity
100
AcDbBlockBegin
2
*PAPER_SPACE
0
ENDBLK
5
1D
100
AcDbEntity
100
AcDbBlockEnd
0
ENDSEC
0
SECTION
2
ENTITIES
0
CIRCLE
5
100
100
AcDbEntity
8
0
100
AcDbCircle
10
824.4258810155743
20
213.85251904433576
30
0
40
2.9999999999999716
210
0
220
0
230
1
0
CIRCLE
5
101
100
AcDbEntity
8
0
100
AcDbCircle
10
824.4258810155743
20
231.85251904433582
30
0
40
2.9999999999999716
210
0
220
0
230
1
0
CIRCLE
5
102
100
AcDbEntity
8
0
100
AcDbCircle
10
700.07588022138702
20
-156.89999999999984
30
0
40
70.000000000000028
210
0
220
0
230
1
0
CIRCLE
5
103
100
AcDbEntity
8
0
100
AcDbCircle
10
625.83184750992223
20
-268.76098618881059
30
0
40
2.9999999999999982
210
0
220
0
230
1
0
CIRCLE
5
104
100
AcDbEntity
8
0
100
AcDbCircle
10
759.0255888991162
20
-278.49252090301837
30
0
40
2.9999999999999982
210
0
220
0
230
1
0
CIRCLE
5
105
100
AcDbEntity
8
0
100
AcDbCircle
10
640.97441110088334
20
-278.49252090301144
30
0
40
2.9999999999999982
210
0
220
0
230
1
0
CIRCLE
5
106
100
AcDbEntity
8
0
100
AcDbCircle
10
774.16815249007743
20
-268.76098618881076
30
0
40
2.9999999999999982
210
0
220
0
230
1
0
CIRCLE
5
107
100
AcDbEntity
8
0
100
AcDbCircle
10
624.89999999999964
20
-232.20000000000041
30
0
40
4.0000000000000036
210
0
220
0
230
1
0
CIRCLE
5
108
100
AcDbEntity
8
0
100
AcDbCircle
10
775.0999999999998
20
-232.20000000000041
30
0
40
4.0000000000000036
210
0
220
0
230
1
0
CIRCLE
5
109
100
AcDbEntity
8
0
100
AcDbCircle
10
699.99999999999977
20
117.00000174343558
30
0
40
4
210
0
220
0
230
1
0
CIRCLE
5
110
100
AcDbEntity
8
0
100
AcDbCircle
10
555.70088022138657
20
276.69999999999959
30
0
40
2.9999999999999893
210
0
220
0
230
1
0
LWPOLYLINE
5
111
100
AcDbEntity
8
0
100
AcDbPolyline
90
47
70
1
43
0.0
10
682.4699999999998
20
327.10999999999962
10
781.09999999999991
20
327.10999999999962
10
781.09999999999968
20
323.89999999999964
10
823.87588022138652
20
323.89999999999964
42
-0.41421356237309503
10
861.97588022138666
20
285.79999999999961
10
861.97588022138666
20
284.0112802520124
42
-0.0085447300546758597
10
861.99999999999977
20
282.59999999999962
10
861.99999999999977
20
232.59999999999968
10
865.0999999999998
20
232.59999999999968
10
865.0999999999998
20
151.59999999999968
10
846.49628246099951
20
-128.39286697348962
10
852.39999999999964
20
-170.40000000000035
10
846.22672917884915
20
-213.33604166263424
10
828.20703840347176
20
-252.79366058023345
10
799.80077585326126
20
-285.57623513158933
10
763.30924798148715
20
-309.02791609202905
10
721.68878135284831
20
-321.24878774265454
10
721.68878135284842
20
-332.20000000000033
10
678.31121864715112
20
-332.20000000000033
10
678.31121864715112
20
-321.24878774265454
10
636.69075201851228
20
-309.02791609202899
10
600.19922414673817
20
-285.57623513158933
10
596.21041425298688
20
-280.97290312048938
10
586.02999356161843
20
-289.7942878649236
10
565.20542222215829
20
-265.76145140045816
10
575.38584291352674
20
-256.94006665602399
10
571.79296159652779
20
-252.79366058023351
10
553.77327082115028
20
-213.33604166263427
10
547.5999999999998
20
-170.40000000000035
10
553.79999999999984
20
-128.47782460206261
10
553.79999999999984
20
-18.700000000000312
10
577.69999999999982
20
22.799999999999638
10
577.69999999999982
20
64.899999999999608
42
0.41421356237309304
10
558.69999999999982
20
83.899999999999665
10
514.99999724328495
20
83.89999999999965
10
514.99999724328495
20
81.000001192092626
42
-0.41421356237309503
10
513.99999724328495
20
80.000001192092611
10
505.29999999999973
20
80.000001192092611
42
-0.41421356237309503
10
504.29999999999973
20
81.000001192092626
10
504.29999999999978
20
215.89999999999961
10
526.99999999999977
20
215.89999999999961
10
526.99999999999977
20
317.59999999999968
10
665.07650005079358
20
317.59999999999968
42
0.26576310485443799
10
670.50656502610855
20
320.70556822519893
42
-0.26413357978836377
10
675.98384218731485
20
323.86031248088068
10
682.49999999999977
20
323.89999999999964
10
682.46999999999969
20
323.89999999999964
0
CIRCLE
5
112
100
AcDbEntity
8
0
100
AcDbCircle
10
555.70088022138657
20
294.69999999999965
30
0
40
3.0000000000000071
210
0
220
-0
230
1
0
ENDSEC
0
SECTION
2
OBJECTS
0
DICTIONARY
5
C
100
AcDbDictionary
3
ACAD_GROUP
350
D
3
ACAD_MLINESTYLE
350
17
0
DICTIONARY
5
D
100
AcDbDictionary
0
DICTIONARY
5
1A
330
C
100
AcDbDictionary
0
DICTIONARY
5
17
100
AcDbDictionary
0
ENDSEC
0
EOF
